<svg xmlns="http://www.w3.org/2000/svg" viewBox="0 0 578 578"><defs><style>.cls-1{fill:#ffa9cc;}.cls-2{fill:#e2be76;}.cls-3{fill:#cca96a;}.cls-4{fill:#f9d48a;}.cls-5{fill:#e75163;}.cls-6{fill:#c64a5f;}.cls-7{fill:none;}.cls-8{fill:#ba9965;}.cls-9{fill:#c9a76b;}.cls-10{fill:#e5c07f;}.cls-11{fill:#284268;}</style></defs><title>email stacked pink</title><g id="Layer_2" data-name="Layer 2"><rect class="cls-1" width="578" height="578" rx="64.42"/></g><g id="Layer_1" data-name="Layer 1"><path class="cls-2" d="M545.85,403.14l-101,86.44.06.07L572.62,619.14l1.46.89a40.63,40.63,0,0,0,10-26.73V408.62Z" transform="translate(-131.71 -152.71)"/><path class="cls-3" d="M572.62,619.14,444.91,489.65l-.06-.07-130.4-.12L187.11,619.11l-2.08.17a40.72,40.72,0,0,0,31.51,14.86H543.21A40.72,40.72,0,0,0,574.08,620Z" transform="translate(-131.71 -152.71)"/><path class="cls-2" d="M314.45,489.46,187.11,619.11l-2.08.17a40.71,40.71,0,0,1-9.32-26V372Z" transform="translate(-131.71 -152.71)"/><path class="cls-4" d="M506.38,331v-.15H216.54a40.84,40.84,0,0,0-40.83,40.84V372L353.54,522.56a40.84,40.84,0,0,0,52.8,0l139.51-119.4Z" transform="translate(-131.71 -152.71)"/><path class="cls-5" d="M665.71,331A81.67,81.67,0,1,1,584,249.29h0A81.66,81.66,0,0,1,665.71,331Z" transform="translate(-131.71 -152.71)"/><path class="cls-6" d="M532.38,331A81.68,81.68,0,0,1,599,250.68a81.67,81.67,0,1,0,0,160.55A81.64,81.64,0,0,1,532.38,331Z" transform="translate(-131.71 -152.71)"/><path class="cls-7" d="M205.71,397.39l-30-25.41Z" transform="translate(-131.71 -152.71)"/><path class="cls-8" d="M215,619.28l.69,0-.69,0a40.75,40.75,0,0,1-8.82-19.62l-19.1,19.45-1.39.12-.69,0a40.72,40.72,0,0,0,31.51,14.86h30A40.72,40.72,0,0,1,215,619.28Z" transform="translate(-131.71 -152.71)"/><path class="cls-9" d="M205.71,593.3V397.39l-30-25.4V593.3a40.71,40.71,0,0,0,9.32,26l.69,0,1.39-.12,19.1-19.45A41,41,0,0,1,205.71,593.3Z" transform="translate(-131.71 -152.71)"/><path class="cls-10" d="M205.71,372v-.34a40.84,40.84,0,0,1,40.83-40.84h-30a40.84,40.84,0,0,0-40.83,40.84V372l30,25.4Z" transform="translate(-131.71 -152.71)"/><path class="cls-11" d="M206,437.75a6,6,0,0,0-6,6v6.3a6,6,0,0,0,12,0v-6.3A6,6,0,0,0,206,437.75Z" transform="translate(-131.71 -152.71)"/><path class="cls-11" d="M206,467a6,6,0,0,0-6,6v63a6,6,0,0,0,12,0V473A6,6,0,0,0,206,467Z" transform="translate(-131.71 -152.71)"/><path class="cls-11" d="M584.05,243.28A87.78,87.78,0,0,0,496.6,324.8h-280a46.89,46.89,0,0,0-46.84,46.83V593.3a46.89,46.89,0,0,0,46.84,46.83H543.21a46.89,46.89,0,0,0,46.84-46.83V418.41a87.67,87.67,0,0,0-6-175.13Zm-402.34,350V384.92l55.72,47.17a6,6,0,0,0,8.12-8.82l-.37-.34L181.8,369.27a34.89,34.89,0,0,1,34.75-32.47h280a87.14,87.14,0,0,0,39,67.22L402.47,518a34.73,34.73,0,0,1-45,0l-81.61-69.1a6,6,0,0,0-7.76,9.15l37.59,31.83-119,121.21a34.74,34.74,0,0,1-4.89-17.77Zm361.5,34.83H216.55a34.61,34.61,0,0,1-22.1-7.93L314.83,497.63l34.84,29.5a46.69,46.69,0,0,0,60.58,0l34.26-29.32L565.28,620.23a34.65,34.65,0,0,1-22.07,7.9Zm34.84-34.83a34.59,34.59,0,0,1-4.92,17.81L453.64,490l93.1-79.67a87.54,87.54,0,0,0,31.31,8.13Zm6-186.69A75.67,75.67,0,1,1,659.71,331h0a75.46,75.46,0,0,1-75.27,75.66Z" transform="translate(-131.71 -152.71)"/><path class="cls-11" d="M606.59,364.21h-36v-4.66c0-14.08,39.69-22.66,39.69-49,0-14.7-12-24.37-26.21-24.37-13.35,0-25.11,8.57-25.11,21.68,0,5.51,2.45,7.23,5.88,7.23,4.28,0,6.86-2.45,6.86-4.9,0-8.33,5.51-12.13,12.37-12.13,9.31,0,13.23,6.86,13.23,12.86,0,18.86-40.06,28.79-40.06,48.63v11.88c0,2.57,3.31,4.29,5.76,4.29h43.61c2.2,0,4.28-2.82,4.28-5.88s-2.08-5.63-4.28-5.63Z" transform="translate(-131.71 -152.71)"/></g></svg>