<?xml version="1.0" encoding="utf-8"?>
<!-- Generator: Adobe Illustrator 24.0.3, SVG Export Plug-In . SVG Version: 6.00 Build 0)  -->
<svg version="1.1" id="Layer_1" xmlns="http://www.w3.org/2000/svg" xmlns:xlink="http://www.w3.org/1999/xlink" x="0px" y="0px"
	 viewBox="0 0 512 512" style="enable-background:new 0 0 512 512;" xml:space="preserve">
<style type="text/css">
	.st0{fill:#FFEB7B;}
</style>
<g>
	<path class="st0" d="M412.2,180.2L263.3,258c-4.5,2.3-10.2,2.3-14.7,0L99.7,180.2v35.3l134.5,70.3c6.9,3.4,14.2,5.3,21.7,5.3
		c7.5,0,15-1.9,21.7-5.3l134.5-70.3h0V180.2z"/>
	<path class="st0" d="M416,0H96C43,0,0,43,0,96v320c0,53,43,96,96,96h320c53,0,96-43,96-96V96C512,43,469,0,416,0z M443.5,341.9
		c0,21.5-17.5,39.1-39.1,39.1H107.6c-21.5,0-39.1-17.5-39.1-39.1V170c0-21.5,17.5-39,39.1-39h296.9c21.5,0,39.1,17.5,39.1,39V341.9z
		"/>
</g>
</svg>
