<?xml version="1.0" encoding="utf-8"?>
<!-- Generator: Adobe Illustrator 24.0.3, SVG Export Plug-In . SVG Version: 6.00 Build 0)  -->
<svg version="1.1" id="Layer_1" xmlns="http://www.w3.org/2000/svg" xmlns:xlink="http://www.w3.org/1999/xlink" x="0px" y="0px"
	 viewBox="0 0 1920 1080" style="enable-background:new 0 0 1920 1080;" xml:space="preserve">
<style type="text/css">
	.st0{fill:#FFFFFF;stroke:#000000;stroke-width:7;stroke-linecap:round;stroke-linejoin:round;stroke-miterlimit:10;}
</style>
<path class="st0" d="M666.5,272.5c-185.72,68.66-310.38,128.2-303,163c13.73,64.8,485.9,51.08,496-14
	c7.21-46.43-196.21-132.67-393-137c-90.65-1.99-166.07-10.86-242.37,23.93c-35.94,16.39-92.88,42.35-115.63,94.07
	c-54.4,123.69,126.95,303.36,141,317c176.44,171.29,451.5,213.1,676,161c70.03-16.25,363.79-84.43,441-315
	c38.11-113.81,25.4-272.96-47-306c-99.37-45.35-349.91,129.15-334,319c11.9,141.92,169.48,254.05,306,264
	c188.28,13.73,280.85-170.96,404-123c99.85,38.89,150.98,203.9,109,248c-41.71,43.82-189.09-17.33-285-85
	c-191.35-135-165.18-287.02-322-353c-95.9-40.35-191.48-19.6-314,7c-88.67,19.25-199.88,43.39-298,129
	c-120.81,105.41-97.13,195.24-219,264c-24.82,14-129.15,72.87-209,26c-71.24-41.81-99.69-154.12-66-228
	c41.35-90.67,146.95-59.13,281-160c89.87-67.63,219.78-215.29,177-342c-30.91-91.56-149.47-164.74-252-141
	c-48.77,11.29-125.45,51.81-131,124c-5.5,71.54,60.61,151.43,132,144c67.44-7.02,121.85-90.1,102-146
	c-12.44-35.05-57.12-67.98-92-56c-31.07,10.67-39.22,51.77-40,56c-10.47,56.95,44.67,98.81,49,102c7.24,5.32,48.12,35.38,81,21
	c30.08-13.16,28.53-52.6,46-93c32.81-75.86,120.56-127.01,181-134c118.85-13.74,145.85,141.71,290,172
	c128.33,26.96,167.36-83.54,391-141c63.34-16.27,345.4-88.74,464,52c59.27,70.34,76.46,192.44,21,278
	c-59.65,92.02-187.61,117.51-276,94c-101.56-27.01-110.35-107.92-241-145c-35.48-10.07-91.85-25.3-157-6
	c-78.58,23.28-158.45,93.39-173,191c-2.68,17.95-13.79,92.51,32,149c75.24,92.83,241.09,59.11,324,24
	c86.9-36.8,135.86-97.63,155-122c73.85-94.03,83.39-190.38,85-210c4.14-50.28,8.9-108.09-30-156c-2.19-2.69-55.97-66.9-127-55
	c-45.44,7.61-71.96,42.01-92,68c-16.14,20.94-62.18,80.64-51,158c16.87,116.66,147.56,160.63,155,163c22.11,7.06,94.59,30.18,162-10
	c80.68-48.08,85.94-146.18,87-166c1.54-28.68,5.17-96.34-42-132c-26.6-20.11-75.5-34.68-107-9c-34.63,28.24-32.56,92.37-6,115
	c45.9,39.11,166.61-44.29,185-57c56.91-39.32,146.24-101.04,136-187c-6.33-53.15-49.15-102.2-100-118
	c-80.06-24.87-161.16,38.54-198,84c-52.23,64.45-28.53,108.9-87,157c-46.11,37.93-102.53,44.59-123,47
	c-55.34,6.53-98.14-6.09-113-11c-45.44-15.02-74.9-39.09-94-55c-76.98-64.12-79.46-119.66-121-122c-36.42-2.05-67.09,38.8-77,52
	c-25.34,33.76-16.35,51.61-42,110c-17.8,40.5-30.08,68.46-57,87c-56.36,38.82-139.31,10.5-139,3c0.45-11.03,181.01,27.15,232-54
	c27.44-43.67,14.75-117.75-28-148C814.17,167.6,719.71,187.46,666.5,272.5z"/>
</svg>
